TITLE ""
FILE "1Q_t_0429-0438.mp3" MP3
  TRACK 01 AUDIO
    TITLE "1Q_t_0429-0438_01"
    INDEX 01 00:00:00
  TRACK 02 AUDIO
    TITLE "1Q_t_0429-0438_02"
    INDEX 01 00:01:08
  TRACK 03 AUDIO
    TITLE "1Q_t_0429-0438_03"
    INDEX 01 00:01:23
  TRACK 04 AUDIO
    TITLE "1Q_t_0429-0438_04"
    INDEX 01 00:02:48
  TRACK 05 AUDIO
    TITLE "1Q_t_0429-0438_05"
    INDEX 01 00:02:62
  TRACK 06 AUDIO
    TITLE "1Q_t_0429-0438_06"
    INDEX 01 00:06:44
  TRACK 07 AUDIO
    TITLE "1Q_t_0429-0438_07"
    INDEX 01 00:07:22
  TRACK 08 AUDIO
    TITLE "1Q_t_0429-0438_08"
    INDEX 01 00:08:47
  TRACK 09 AUDIO
    TITLE "1Q_t_0429-0438_09"
    INDEX 01 00:08:61
  TRACK 10 AUDIO
    TITLE "1Q_t_0429-0438_10"
    INDEX 01 00:11:59
  TRACK 11 AUDIO
    TITLE "1Q_t_0429-0438_11"
    INDEX 01 00:11:73
  TRACK 12 AUDIO
    TITLE "1Q_t_0429-0438_12"
    INDEX 01 00:18:02
  TRACK 13 AUDIO
    TITLE "1Q_t_0429-0438_13"
    INDEX 01 00:18:57
  TRACK 14 AUDIO
    TITLE "1Q_t_0429-0438_14"
    INDEX 01 00:19:74
  TRACK 15 AUDIO
    TITLE "1Q_t_0429-0438_15"
    INDEX 01 00:20:15
  TRACK 16 AUDIO
    TITLE "1Q_t_0429-0438_16"
    INDEX 01 00:22:12
  TRACK 17 AUDIO
    TITLE "1Q_t_0429-0438_17"
    INDEX 01 00:22:26
  TRACK 18 AUDIO
    TITLE "1Q_t_0429-0438_18"
    INDEX 01 00:29:30
  TRACK 19 AUDIO
    TITLE "1Q_t_0429-0438_19"
    INDEX 01 00:30:06
  TRACK 20 AUDIO
    TITLE "1Q_t_0429-0438_20"
    INDEX 01 00:31:17
  TRACK 21 AUDIO
    TITLE "1Q_t_0429-0438_21"
    INDEX 01 00:31:34
  TRACK 22 AUDIO
    TITLE "1Q_t_0429-0438_22"
    INDEX 01 00:33:53
  TRACK 23 AUDIO
    TITLE "1Q_t_0429-0438_23"
    INDEX 01 00:33:65
  TRACK 24 AUDIO
    TITLE "1Q_t_0429-0438_24"
    INDEX 01 00:39:14
  TRACK 25 AUDIO
    TITLE "1Q_t_0429-0438_25"
    INDEX 01 00:39:69
  TRACK 26 AUDIO
    TITLE "1Q_t_0429-0438_26"
    INDEX 01 00:41:27
  TRACK 27 AUDIO
    TITLE "1Q_t_0429-0438_27"
    INDEX 01 00:41:45
  TRACK 28 AUDIO
    TITLE "1Q_t_0429-0438_28"
    INDEX 01 00:43:04
  TRACK 29 AUDIO
    TITLE "1Q_t_0429-0438_29"
    INDEX 01 00:43:18
  TRACK 30 AUDIO
    TITLE "1Q_t_0429-0438_30"
    INDEX 01 00:49:64
  TRACK 31 AUDIO
    TITLE "1Q_t_0429-0438_31"
    INDEX 01 00:50:42
  TRACK 32 AUDIO
    TITLE "1Q_t_0429-0438_32"
    INDEX 01 00:51:43
  TRACK 33 AUDIO
    TITLE "1Q_t_0429-0438_33"
    INDEX 01 00:51:57
  TRACK 34 AUDIO
    TITLE "1Q_t_0429-0438_34"
    INDEX 01 00:54:55
  TRACK 35 AUDIO
    TITLE "1Q_t_0429-0438_35"
    INDEX 01 00:54:73
  TRACK 36 AUDIO
    TITLE "1Q_t_0429-0438_36"
    INDEX 01 00:59:52
  TRACK 37 AUDIO
    TITLE "1Q_t_0429-0438_37"
    INDEX 01 01:00:28
  TRACK 38 AUDIO
    TITLE "1Q_t_0429-0438_38"
    INDEX 01 01:01:24
  TRACK 39 AUDIO
    TITLE "1Q_t_0429-0438_39"
    INDEX 01 01:01:39
  TRACK 40 AUDIO
    TITLE "1Q_t_0429-0438_40"
    INDEX 01 01:02:45
  TRACK 41 AUDIO
    TITLE "1Q_t_0429-0438_41"
    INDEX 01 01:02:62
  TRACK 42 AUDIO
    TITLE "1Q_t_0429-0438_42"
    INDEX 01 01:08:59
  TRACK 43 AUDIO
    TITLE "1Q_t_0429-0438_43"
    INDEX 01 01:09:37
  TRACK 44 AUDIO
    TITLE "1Q_t_0429-0438_44"
    INDEX 01 01:10:56
  TRACK 45 AUDIO
    TITLE "1Q_t_0429-0438_45"
    INDEX 01 01:10:72
  TRACK 46 AUDIO
    TITLE "1Q_t_0429-0438_46"
    INDEX 01 01:12:04
  TRACK 47 AUDIO
    TITLE "1Q_t_0429-0438_47"
    INDEX 01 01:12:18
  TRACK 48 AUDIO
    TITLE "1Q_t_0429-0438_48"
    INDEX 01 01:18:57
  TRACK 49 AUDIO
    TITLE "1Q_t_0429-0438_49"
    INDEX 01 01:19:35
  TRACK 50 AUDIO
    TITLE "1Q_t_0429-0438_50"
    INDEX 01 01:20:49
  TRACK 51 AUDIO
    TITLE "1Q_t_0429-0438_51"
    INDEX 01 01:20:62
  TRACK 52 AUDIO
    TITLE "1Q_t_0429-0438_52"
    INDEX 01 01:24:17
  TRACK 53 AUDIO
    TITLE "1Q_t_0429-0438_53"
    INDEX 01 01:24:37
  TRACK 54 AUDIO
    TITLE "1Q_t_0429-0438_54"
    INDEX 01 01:30:55
  TRACK 55 AUDIO
    TITLE "1Q_t_0429-0438_55"
    INDEX 01 01:31:31
  TRACK 56 AUDIO
    TITLE "1Q_t_0429-0438_56"
    INDEX 01 01:32:46
  TRACK 57 AUDIO
    TITLE "1Q_t_0429-0438_57"
    INDEX 01 01:32:61
  TRACK 58 AUDIO
    TITLE "1Q_t_0429-0438_58"
    INDEX 01 01:35:34
  TRACK 59 AUDIO
    TITLE "1Q_t_0429-0438_59"
    INDEX 01 01:35:52
  TRACK 60 AUDIO
    TITLE "1Q_t_0429-0438_60"
    INDEX 01 01:41:47
